<?xml version="1.0" encoding="UTF-8"?><svg id="Layer_2" xmlns="http://www.w3.org/2000/svg" viewBox="0 0 3113.75 694.63"><g id="Layer_2-2"><g><g><path d="m212.81,364.73L120.56,40.39H30v599.61h93.06v-295.83c0-3.83-.12-8.11-.35-12.83l64.69,254.61h51.21l64.27-254.23c-.21,4.52-.32,8.67-.32,12.45v295.83h93.06V40.39h-90.56l-92.24,324.34Z" style="fill:#2bc0d3;"/><path d="m699.32,40.39h-184.48c-18.56,0-32.79,4.99-42.29,14.83-9.46,9.8-14.26,24.47-14.26,43.6v483.11c0,19.01,4.8,33.59,14.27,43.33,9.5,9.77,23.72,14.72,42.28,14.72h184.48c19.03,0,33.63-4.94,43.37-14.68,9.75-9.74,14.69-24.34,14.69-43.37v-150.3h-96.08v124.37h-106.54V124.37h106.54v116.81h96.08V98.82c0-19.15-4.94-33.84-14.68-43.65-9.75-9.81-24.34-14.79-43.38-14.79Z" style="fill:#2bc0d3;"/><path d="m1110.45,234.38V98.07c0-18.91-4.91-33.4-14.59-43.09s-24.18-14.59-43.09-14.59h-178.05c-18.8,0-33.21,4.98-42.83,14.81-9.6,9.8-14.47,24.48-14.47,43.63v131.55c0,20.2,6.9,37.07,20.53,50.16l176.04,166.66v110.33h-100.11v-120.59h-96.46v145c0,19.02,4.87,33.61,14.48,43.35,9.62,9.76,24.03,14.7,42.82,14.7h178.05c18.91,0,33.41-4.94,43.1-14.69,9.68-9.74,14.58-24.33,14.58-43.36v-141c0-20.96-6.91-38.1-20.54-50.92l-176.04-165.9v-101.25h100.11v111.52h96.46Z" style="fill:#2bc0d3;"/><polygon points="187.81 321.45 99.34 10.39 0 10.39 0 620 103.06 620 103.06 347.7 158.5 565.94 217.49 565.94 272.56 348.15 272.56 620 375.61 620 375.61 10.39 276.27 10.39 187.81 321.45" style="fill:#0d0d19;"/><path d="m674.32,10.39h-184.48c-19.97,0-35.41,5.5-45.89,16.36-10.39,10.77-15.66,26.6-15.66,47.08v483.11c0,20.36,5.28,36.11,15.68,46.82,10.47,10.78,25.91,16.24,45.86,16.24h184.48c20.41,0,36.19-5.43,46.91-16.15,10.72-10.72,16.15-26.5,16.15-46.91v-155.3h-106.08v124.37h-96.54V104.37h96.54v116.81h106.08V73.82c0-20.52-5.43-36.39-16.13-47.17-10.72-10.79-26.51-16.27-46.93-16.27Z" style="fill:#0d0d19;"/><path d="m1090.45,214.38V73.07c0-20.28-5.4-35.97-16.06-46.62-10.65-10.66-26.34-16.06-46.62-16.06h-178.05c-20.19,0-35.81,5.49-46.41,16.31-10.55,10.77-15.9,26.63-15.9,47.12v131.55c0,21.61,7.42,39.69,22.09,53.79l174.48,165.18v103.18h-90.11v-120.59h-106.46v150c0,20.39,5.36,36.15,15.92,46.86,10.6,10.75,26.2,16.19,46.38,16.19h178.05c20.29,0,35.99-5.44,46.64-16.17,10.64-10.71,16.04-26.49,16.04-46.89v-141c0-22.4-7.44-40.75-22.11-54.56l-174.47-164.42v-94.1h90.11v111.52h106.46Z" style="fill:#0d0d19;"/></g><g><g><path d="m1240.82,39.07h1804.45" style="fill:#fff; stroke:#2bc0d3; stroke-linecap:round; stroke-linejoin:round; stroke-width:19.31px;"/><circle cx="1211.41" cy="39.07" r="29.41" style="fill:none; stroke:#2bc0d3; stroke-linecap:round; stroke-linejoin:round; stroke-width:19.31px;"/><circle cx="3074.68" cy="39.07" r="29.41" style="fill:none; stroke:#2bc0d3; stroke-linecap:round; stroke-linejoin:round; stroke-width:19.31px;"/></g><line x1="20.44" y1="684.97" x2="3096.2" y2="684.97" style="fill:#fff; stroke:#2bc0d3; stroke-linecap:round; stroke-linejoin:round; stroke-width:19.31px;"/><g><g><path d="m1396.23,623.02h-209.81V117.08h207.87v66.92h-132.22v147.74h113.8v65.63h-113.8v158.73h134.16v66.92Z" style="fill:#216292; stroke:#216292; stroke-width:1.55px;"/><path d="m1699.79,117.08l-96.98,506.58h-75.32l-96.66-506.58h75.97l56.57,346.88c.43,9.92,1.08,24.36,1.94,43.32-.22-9.91.43-24.35,1.94-43.32l56.9-346.88h75.65Z" style="fill:#216292; stroke:#216292; stroke-width:1.55px;"/><path d="m1997.53,576.79c0,30.82-15.31,46.23-45.91,46.23h-164.23c-29.96,0-44.94-15.41-44.94-46.23V163.63c0-31.04,14.98-46.55,44.94-46.55h164.23c30.6,0,45.91,15.52,45.91,46.55v413.15Zm-75.65-18.75V182.06h-103.77v375.98h103.77Z" style="fill:#216292; stroke:#216292; stroke-width:1.55px;"/><path d="m2257.13,623.02h-198.82V117.08h75.65v438.37h123.17v67.57Z" style="fill:#216292; stroke:#216292; stroke-width:1.55px;"/><path d="m2553.9,117.08l-96.98,506.58h-75.32l-96.66-506.58h75.97l56.57,346.88c.43,9.92,1.08,24.36,1.94,43.32-.22-9.91.43-24.35,1.94-43.32l56.9-346.88h75.65Z" style="fill:#216292; stroke:#216292; stroke-width:1.55px;"/><path d="m2806.39,623.02h-209.81V117.08h207.87v66.92h-132.22v147.74h113.8v65.63h-113.8v158.73h134.16v66.92Z" style="fill:#216292; stroke:#216292; stroke-width:1.55px;"/><path d="m3110.27,527.65c0,29.74-8.84,53.07-26.51,69.99-17.67,16.92-41.49,25.38-71.45,25.38h-154.21V117.08h154.21c29.95,0,53.77,8.57,71.45,25.7,17.67,17.13,26.51,40.57,26.51,70.31v314.55Zm-75.97-12.61V224.41c0-28.23-14.76-42.35-44.29-42.35h-56.25v375.98h54.31c30.82,0,46.23-14.33,46.23-43Z" style="fill:#216292; stroke:#216292; stroke-width:1.55px;"/></g><g><path d="m1396.23,623.02h-209.81V117.08h207.87v66.92h-132.22v147.74h113.8v65.63h-113.8v158.73h134.16v66.92Z" style="fill:#2bc0d3;"/><path d="m1699.79,117.08l-96.98,506.58h-75.32l-96.66-506.58h75.97l56.57,346.88c.43,9.92,1.08,24.36,1.94,43.32-.22-9.91.43-24.35,1.94-43.32l56.9-346.88h75.65Z" style="fill:#2bc0d3;"/><path d="m1997.53,576.79c0,30.82-15.31,46.23-45.91,46.23h-164.23c-29.96,0-44.94-15.41-44.94-46.23V163.63c0-31.04,14.98-46.55,44.94-46.55h164.23c30.6,0,45.91,15.52,45.91,46.55v413.15Zm-75.65-18.75V182.06h-103.77v375.98h103.77Z" style="fill:#2bc0d3;"/><path d="m2257.13,623.02h-198.82V117.08h75.65v438.37h123.17v67.57Z" style="fill:#2bc0d3;"/><path d="m2553.9,117.08l-96.98,506.58h-75.32l-96.66-506.58h75.97l56.57,346.88c.43,9.92,1.08,24.36,1.94,43.32-.22-9.91.43-24.35,1.94-43.32l56.9-346.88h75.65Z" style="fill:#2bc0d3;"/><path d="m2806.39,623.02h-209.81V117.08h207.87v66.92h-132.22v147.74h113.8v65.63h-113.8v158.73h134.16v66.92Z" style="fill:#2bc0d3;"/><path d="m3110.27,527.65c0,29.74-8.84,53.07-26.51,69.99-17.67,16.92-41.49,25.38-71.45,25.38h-154.21V117.08h154.21c29.95,0,53.77,8.57,71.45,25.7,17.67,17.13,26.51,40.57,26.51,70.31v314.55Zm-75.97-12.61V224.41c0-28.23-14.76-42.35-44.29-42.35h-56.25v375.98h54.31c30.82,0,46.23-14.33,46.23-43Z" style="fill:#2bc0d3;"/></g></g><g><g><polygon points="187.81 306.06 194.15 283.75 120.56 25 107.87 25 187.81 306.06" style="fill:#2bc0d3;"/><polygon points="103.06 355.59 103.06 604.61 30 604.61 30 624.61 123.06 624.61 123.06 434.31 103.06 355.59" style="fill:#2bc0d3;"/><polygon points="266.29 354.12 217.49 550.55 182.31 550.55 187.39 570.55 238.6 570.55 266.29 457.6 266.29 354.12" style="fill:#2bc0d3;"/><polygon points="375.61 25 375.61 604.61 302.56 604.61 302.56 624.61 395.61 624.61 395.61 25 375.61 25" style="fill:#2bc0d3;"/></g><g><polygon points="534.76 88.98 534.76 504.19 554.76 504.19 554.76 108.98 624.52 108.98 624.52 88.98 534.76 88.98" style="fill:#2bc0d3;"/><path d="m737.38,541.55c0,20.41-5.43,36.19-16.15,46.91-10.72,10.72-26.5,16.15-46.91,16.15h-184.48c-8.76,0-16.64-1.05-23.62-3.14,1.81,3.12,3.92,5.93,6.34,8.42,9.5,9.77,23.72,14.72,42.28,14.72h184.48c19.03,0,33.63-4.94,43.37-14.68,9.75-9.74,14.69-24.34,14.69-43.37v-150.3h-20v125.3Z" style="fill:#2bc0d3;"/><path d="m742.7,39.79c-2.59-2.61-5.54-4.87-8.81-6.79,2.31,7.46,3.48,15.94,3.48,25.44v147.36h-76.08v20h96.08V83.44c0-19.15-4.94-33.84-14.68-43.65Z" style="fill:#2bc0d3;"/></g><g><rect x="893.88" y="421.55" width="20" height="82.65" style="fill:#2bc0d3;"/><polygon points="893.88 87.47 893.88 174.19 913.88 193.04 913.88 107.47 977.82 107.47 977.82 87.47 893.88 87.47" style="fill:#2bc0d3;"/><path d="m1089.92,374.63l-5.13-4.83c3.76,9.18,5.66,19.45,5.66,30.75v141c0,20.4-5.4,36.17-16.04,46.89-10.66,10.73-26.35,16.17-46.64,16.17h-178.05c-9.05,0-17.17-1.1-24.35-3.28,1.85,3.18,4.02,6.05,6.52,8.58,9.62,9.76,24.03,14.7,42.82,14.7h178.05c18.91,0,33.41-4.94,43.1-14.69,9.68-9.74,14.58-24.33,14.58-43.36v-141c0-20.96-6.91-38.1-20.54-50.92Z" style="fill:#2bc0d3;"/><path d="m1095.86,39.59c-2.58-2.58-5.51-4.81-8.77-6.71,2.23,7.29,3.36,15.56,3.36,24.8v141.31h-76.46v20h96.46V82.68c0-18.91-4.91-33.4-14.59-43.09Z" style="fill:#2bc0d3;"/></g></g><g><path d="m362.61,591.61h-85.06v-291.83c0-15.37,1.76-36.79,5.29-64.26l-76.36,302.04h-44.98L84.76,235.51c3.53,27.97,5.29,49.4,5.29,64.26v291.83H5V0h83.54l92.99,326.99c1,3.53,1.76,12.47,2.27,26.84,0-6.3.76-15.24,2.27-26.84L279.07,0h83.54v591.61Z" style="fill:#fff;"/><path d="m724.38,537.55c0,36.04-18.02,54.06-54.06,54.06h-184.48c-35.03,0-52.55-18.02-52.55-54.06V54.44c0-36.29,17.51-54.44,52.55-54.44h184.48c36.04,0,54.06,18.15,54.06,54.44v138.36h-88.08v-116.81h-114.54v439.64h114.54v-124.37h88.08v146.3Z" style="fill:#fff;"/><path d="m1077.45,537.55c0,36.04-17.9,54.06-53.68,54.06h-178.05c-35.53,0-53.3-18.02-53.3-54.06v-141h88.46v120.59h108.11v-116.05l-177.29-167.84c-12.85-12.35-19.28-28.1-19.28-47.25V54.44c0-36.29,17.77-54.44,53.3-54.44h178.05c35.78,0,53.68,17.9,53.68,53.68v132.31h-88.46v-111.52h-108.11v106.98l177.29,167.09c12.85,12.1,19.28,28.1,19.28,48.01v141Z" style="fill:#fff;"/></g></g></g></g></svg>